<?xml version="1.0"?>
<svg xmlns="http://www.w3.org/2000/svg" xmlns:xlink="http://www.w3.org/1999/xlink" version="1.1" id="Capa_1" x="0px" y="0px" viewBox="0 0 480 480" style="enable-background:new 0 0 480 480;" xml:space="preserve" width="512px" height="512px" class=""><g><g>
	<g>
		<path d="M480,88V72h-40v-8c0-13.255-10.745-24-24-24h-8V0h-16v40h-16V0h-16v40h-16V0h-16v40h-16V0h-16v40h-16V0h-16v40h-16V0h-16    v40h-16V0h-16v40h-16V0h-16v40h-16V0h-16v40h-16V0h-16v40H88V0H72v40h-8c-13.255,0-24,10.745-24,24v8H0v16h40v16H0v16h40v16H0v16    h40v16H0v16h40v16H0v16h40v16H0v16h40v16H0v16h40v16H0v16h40v16H0v16h40v16H0v16h40v16H0v16h40v8c0,13.255,10.745,24,24,24h8v40    h16v-40h16v40h16v-40h16v40h16v-40h16v40h16v-40h16v40h16v-40h16v40h16v-40h16v40h16v-40h16v40h16v-40h16v40h16v-40h16v40h16v-40    h16v40h16v-40h8c13.255,0,24-10.745,24-24v-8h40v-16h-40v-16h40v-16h-40v-16h40v-16h-40v-16h40v-16h-40v-16h40v-16h-40v-16h40v-16    h-40v-16h40v-16h-40v-16h40v-16h-40v-16h40v-16h-40v-16h40v-16h-40V88H480z M424,416c0,4.418-3.582,8-8,8H64c-4.418,0-8-3.582-8-8    V64c0-4.418,3.582-8,8-8h352c4.418,0,8,3.582,8,8V416z" data-original="#000000" class="active-path" data-old_color="#000000" fill="#F97540"/>
	</g>
</g><g>
	<g>
		<path d="M400,72H80c-4.418,0-8,3.582-8,8v320c0,4.418,3.582,8,8,8h320c4.418,0,8-3.582,8-8V80C408,75.582,404.418,72,400,72z     M392,392H88V88h304V392z" data-original="#000000" class="active-path" data-old_color="#000000" fill="#F97540"/>
	</g>
</g></g> </svg>
