<?xml version="1.0"?>
<svg xmlns="http://www.w3.org/2000/svg" height="512px" viewBox="0 0 512 512" width="512px" class=""><g><g id="Out_line" data-name="Out line"><path d="m133.24457 360h2.75543a23.997 23.997 0 0 0 7.57654-46.76758 55.98529 55.98529 0 0 0 -111.15308 0 23.997 23.997 0 0 0 7.57654 46.76758h2.75543a48.02719 48.02719 0 0 0 21.24457 25.58008v8.65392l-15.17871 5.05945a47.93931 47.93931 0 0 0 -32.82129 45.53712v51.16943h16v-51.16943a31.96047 31.96047 0 0 1 21.88086-30.3584l12.45361-4.15088a23.99723 23.99723 0 0 0 43.33106 0l12.45361 4.15088a31.96047 31.96047 0 0 1 21.88086 30.3584v51.16943h16v-51.16943a47.93931 47.93931 0 0 0 -32.82129-45.53711l-15.17871-5.05946v-8.65393a48.02719 48.02719 0 0 0 21.24457-25.58007zm2.75543-16v-16a8 8 0 0 1 0 16zm-48-64a40.06809 40.06809 0 0 1 39.19061 31.97485 36.75488 36.75488 0 0 1 -29.84686-16.38159l-2.687-4.03076a8.0005 8.0005 0 0 0 -13.31348 0l-2.68652 4.03076a36.75645 36.75645 0 0 1 -29.84735 16.38159 40.06809 40.06809 0 0 1 39.1906-31.97485zm-56 56a8.00917 8.00917 0 0 1 8-8v16a8.00917 8.00917 0 0 1 -8-8zm56 72a8.00917 8.00917 0 0 1 -8-8v-19.32812a7.99985 7.99985 0 0 0 -4.79688-7.33057 32.01935 32.01935 0 0 1 -19.20312-29.34131v-16.61743a52.68038 52.68038 0 0 0 32-17.68872 52.68281 52.68281 0 0 0 32 17.68872v16.61743a32.01935 32.01935 0 0 1 -19.20312 29.34131 7.99985 7.99985 0 0 0 -4.79688 7.33057v19.32812a8.00917 8.00917 0 0 1 -8 8z" data-original="#000000" class="active-path" data-old_color="#000000" fill="#005EAE"/><circle cx="72" cy="336" r="8" data-original="#000000" class="active-path" data-old_color="#000000" fill="#005EAE"/><circle cx="104" cy="336" r="8" data-original="#000000" class="active-path" data-old_color="#000000" fill="#005EAE"/><path d="m48 456h16v40h-16z" data-original="#000000" class="active-path" data-old_color="#000000" fill="#005EAE"/><path d="m112 456h16v40h-16z" data-original="#000000" class="active-path" data-old_color="#000000" fill="#005EAE"/><circle cx="240" cy="336" r="8" data-original="#000000" class="active-path" data-old_color="#000000" fill="#005EAE"/><circle cx="272" cy="336" r="8" data-original="#000000" class="active-path" data-old_color="#000000" fill="#005EAE"/><path d="m216 456h16v40h-16z" data-original="#000000" class="active-path" data-old_color="#000000" fill="#005EAE"/><path d="m280 456h16v40h-16z" data-original="#000000" class="active-path" data-old_color="#000000" fill="#005EAE"/><path d="m328 376a16.01833 16.01833 0 0 1 -16-16v-1.3761a23.994 23.994 0 0 0 -.42346-45.39148 55.98529 55.98529 0 0 0 -111.15308 0 23.994 23.994 0 0 0 -.42346 45.39148v1.3761a16.01833 16.01833 0 0 1 -16 16 8.00022 8.00022 0 0 0 -6.3999 12.80029 88.24142 88.24142 0 0 0 21.95117 20.652 47.92955 47.92955 0 0 0 -15.55127 35.37828v51.16943h16v-51.16943a31.96047 31.96047 0 0 1 21.88086-30.3584l12.45361-4.15088a23.99723 23.99723 0 0 0 43.33106 0l12.45361 4.15088a31.96047 31.96047 0 0 1 21.88086 30.3584v51.16943h16v-51.16943a47.92926 47.92926 0 0 0 -15.55121-35.37818 88.25048 88.25048 0 0 0 21.95111-20.65259 8 8 0 0 0 -6.3999-12.7998zm-24-32v-16a8 8 0 0 1 0 16zm-48-64a40.06761 40.06761 0 0 1 39.19507 32h-15.19507v-16h-16v16h-16v-16h-16v16h-15.19507a40.06761 40.06761 0 0 1 39.19507-32zm-48 48v16a8 8 0 0 1 0-16zm8.82129 71.29346q-.943.31421-1.86542.66528a72.27928 72.27928 0 0 1 -16.28787-11.52274 32.143 32.143 0 0 0 16.14337-19.816 47.98549 47.98549 0 0 0 17.18863 16.96008v8.65392zm39.17871 8.70654a8.00917 8.00917 0 0 1 -8-8v-19.32812a7.99985 7.99985 0 0 0 -4.79688-7.33057 32.01935 32.01935 0 0 1 -19.20312-29.34131v-16h64v16a32.01935 32.01935 0 0 1 -19.20312 29.34131 7.99985 7.99985 0 0 0 -4.79688 7.33057v19.32812a8.00917 8.00917 0 0 1 -8 8zm41.04395-8.04126q-.92277-.3501-1.86524-.66528l-15.17871-5.05946v-8.65393a47.98549 47.98549 0 0 0 17.18866-16.96007 32.143 32.143 0 0 0 16.14334 19.816 72.30259 72.30259 0 0 1 -16.288 11.52274z" data-original="#000000" class="active-path" data-old_color="#000000" fill="#005EAE"/><path d="m469.24457 360h2.75543a23.99794 23.99794 0 0 0 8-46.6239v-25.3761a23.98456 23.98456 0 0 0 -40.00018-17.86926 23.90055 23.90055 0 0 0 -15.99982-6.13074h-32a24.0275 24.0275 0 0 0 -24 24v25.3761a23.99794 23.99794 0 0 0 8 46.6239h2.75543a48.02719 48.02719 0 0 0 21.24457 25.58008v8.65392l-15.17871 5.05945a47.93931 47.93931 0 0 0 -32.82129 45.53712v51.16943h16v-51.16943a31.96047 31.96047 0 0 1 21.88086-30.3584l12.45361-4.15088a23.99723 23.99723 0 0 0 43.33106 0l12.45361 4.15088a31.96047 31.96047 0 0 1 21.88086 30.3584v51.16943h16v-51.16943a47.93931 47.93931 0 0 0 -32.82129-45.53711l-15.17871-5.05946v-8.65393a48.02719 48.02719 0 0 0 21.24457-25.58007zm2.75543-16v-16a8 8 0 0 1 0 16zm-16-64a8.00917 8.00917 0 0 1 8 8v22.62891a24.04116 24.04116 0 0 1 -16-22.62891 8.00917 8.00917 0 0 1 8-8zm-72 8a8.00917 8.00917 0 0 1 8-8h32a8.00917 8.00917 0 0 1 8 8 24.0275 24.0275 0 0 1 -24 24h-24zm-16 48a8.00917 8.00917 0 0 1 8-8v16a8.00917 8.00917 0 0 1 -8-8zm56 72a8.00917 8.00917 0 0 1 -8-8v-19.32812a7.99985 7.99985 0 0 0 -4.79688-7.33057 32.01935 32.01935 0 0 1 -19.20312-29.34131v-16h16a39.96332 39.96332 0 0 0 32-16.02783 40.2317 40.2317 0 0 0 16 12.678v19.34983a32.01935 32.01935 0 0 1 -19.20312 29.34131 7.99985 7.99985 0 0 0 -4.79688 7.33057v19.32812a8.00917 8.00917 0 0 1 -8 8z" data-original="#000000" class="active-path" data-old_color="#000000" fill="#005EAE"/><circle cx="408" cy="336" r="8" data-original="#000000" class="active-path" data-old_color="#000000" fill="#005EAE"/><circle cx="440" cy="336" r="8" data-original="#000000" class="active-path" data-old_color="#000000" fill="#005EAE"/><path d="m384 456h16v40h-16z" data-original="#000000" class="active-path" data-old_color="#000000" fill="#005EAE"/><path d="m448 456h16v40h-16z" data-original="#000000" class="active-path" data-old_color="#000000" fill="#005EAE"/><path d="m448 16h-384a48.05436 48.05436 0 0 0 -48 48v80a48.05436 48.05436 0 0 0 48 48h16v48a7.99981 7.99981 0 0 0 13.65674 5.65674l53.65674-53.65674h79.41113l21.92239 51.15137a7.99981 7.99981 0 0 0 14.70606 0l21.92233-51.15137h79.41113l53.65674 53.65674a7.99981 7.99981 0 0 0 13.65674-5.65674v-48h16a48.05436 48.05436 0 0 0 48-48v-80a48.05436 48.05436 0 0 0 -48-48zm32 128a32.036 32.036 0 0 1 -32 32h-48v16h16v28.68652l-42.34326-42.34326a7.99877 7.99877 0 0 0 -5.65674-2.34326h-112v16h11.8678l-11.8678 27.69141-16.647-38.84278a7.99956 7.99956 0 0 0 -7.353-4.84863h-120v16h12.68652l-28.68652 28.68652v-36.68652a7.99977 7.99977 0 0 0 -8-8h-24a32.036 32.036 0 0 1 -32-32v-80a32.036 32.036 0 0 1 32-32h384a32.036 32.036 0 0 1 32 32z" data-original="#000000" class="active-path" data-old_color="#000000" fill="#005EAE"/><path d="m88 48h32v16h-32z" data-original="#000000" class="active-path" data-old_color="#000000" fill="#005EAE"/><path d="m136 48h64v16h-64z" data-original="#000000" class="active-path" data-old_color="#000000" fill="#005EAE"/><path d="m216 48h88v16h-88z" data-original="#000000" class="active-path" data-old_color="#000000" fill="#005EAE"/><path d="m320 48h56v16h-56z" data-original="#000000" class="active-path" data-old_color="#000000" fill="#005EAE"/><path d="m392 48h72v16h-72z" data-original="#000000" class="active-path" data-old_color="#000000" fill="#005EAE"/><path d="m48 80h32v16h-32z" data-original="#000000" class="active-path" data-old_color="#000000" fill="#005EAE"/><path d="m96 80h64v16h-64z" data-original="#000000" class="active-path" data-old_color="#000000" fill="#005EAE"/><path d="m176 80h88v16h-88z" data-original="#000000" class="active-path" data-old_color="#000000" fill="#005EAE"/><path d="m280 80h56v16h-56z" data-original="#000000" class="active-path" data-old_color="#000000" fill="#005EAE"/><path d="m352 80h112v16h-112z" data-original="#000000" class="active-path" data-old_color="#000000" fill="#005EAE"/><path d="m48 112h64v16h-64z" data-original="#000000" class="active-path" data-old_color="#000000" fill="#005EAE"/><path d="m128 112h64v16h-64z" data-original="#000000" class="active-path" data-old_color="#000000" fill="#005EAE"/><path d="m208 112h112v16h-112z" data-original="#000000" class="active-path" data-old_color="#000000" fill="#005EAE"/><path d="m336 112h80v16h-80z" data-original="#000000" class="active-path" data-old_color="#000000" fill="#005EAE"/><path d="m432 112h32v16h-32z" data-original="#000000" class="active-path" data-old_color="#000000" fill="#005EAE"/><path d="m48 144h72v16h-72z" data-original="#000000" class="active-path" data-old_color="#000000" fill="#005EAE"/><path d="m136 144h64v16h-64z" data-original="#000000" class="active-path" data-old_color="#000000" fill="#005EAE"/><path d="m216 144h16v16h-16z" data-original="#000000" class="active-path" data-old_color="#000000" fill="#005EAE"/><path d="m248 144h56v16h-56z" data-original="#000000" class="active-path" data-old_color="#000000" fill="#005EAE"/><path d="m320 144h64v16h-64z" data-original="#000000" class="active-path" data-old_color="#000000" fill="#005EAE"/></g></g> </svg>
